:SAMPLES-PER-SECOND 30
:FULLY-SPECIFIED
:DEGREES
222
root  -35.0411 40.622 -1.70939 -9.03819 -78.3075 6.08731
RightUpLeg  -4.70387 -11.8368 -3.97552
RightLeg  17.3084 -17.7778 1.01328
RightFoot  -8.41867 0.0259981 -3.24796
RightToes  0.000481921 0.542163 -0.142578
Spine  0.511176 0.901852 13.6027
Spine1  14.5199 3.21395 -4.65436
HEad  23.9961 1.67849 -11.8401
LeftShoulder1  9.19464 -12.9049 -48.9197
LeftArm  -6.62022 30.2555 -21.4197
LeftForeArm  30.6177 -17.5485 -3.74095
LeftHand  -0.25398 0.0180481 5.50724
RightShoulder  4.68679 7.80646 35.4677
RightArm  -4.18724 4.56255 31.3716
RightForeArm  8.01375 16.005 5.77551
RightHand  -0.841737 2.22043 -13.0349
LeftUpLeg  -12.5526 3.68747 3.7242
LeftLeg  43.4259 3.87626 4.30539
LeftFoot  -0.659326 0.716208 -7.61846
LeftToes  1.06246e-005 4.65868e-005 -8.65513e-006
223
root  -35.4799 40.6711 -1.84118 -11.359 -78.0803 8.53706
RightUpLeg  -3.86647 -12.0107 -4.36061
RightLeg  16.9511 -17.7606 1.17815
RightFoot  -9.03004 0.00465622 -3.25831
RightToes  0.000481921 0.542163 -0.142578
Spine  0.665757 1.23853 13.8785
Spine1  14.1341 3.84029 -5.93595
HEad  22.9087 3.51605 -14.3819
LeftShoulder1  9.21004 -12.8815 -49.0719
LeftArm  -6.64921 30.3034 -21.463
LeftForeArm  30.5336 -19.2004 -3.48478
LeftHand  -0.25398 0.0180481 5.50724
RightShoulder  4.68874 7.87311 35.2463
RightArm  -3.60302 5.11503 31.4721
RightForeArm  6.65828 16.7289 5.66966
RightHand  -0.88769 2.43839 -13.3674
LeftUpLeg  -13.6468 4.09147 2.68822
LeftLeg  39.351 4.01723 3.89364
LeftFoot  -1.75038 0.659665 -7.73476
LeftToes  1.06246e-005 4.65868e-005 -8.65513e-006
224
root  -35.9133 40.7269 -1.95703 -13.1579 -77.9135 10.4051
RightUpLeg  -2.92184 -11.969 -4.61938
RightLeg  16.3909 -17.896 1.3509
RightFoot  -9.41861 -0.00661241 -3.39832
RightToes  0.000481921 0.542163 -0.142578
Spine  0.763086 1.50326 14.0306
Spine1  13.912 4.33547 -7.06388
HEad  22.0078 5.17849 -16.4248
LeftShoulder1  9.23637 -12.8354 -49.3508
LeftArm  -6.61211 29.9231 -21.4401
LeftForeArm  31.1513 -20.7501 -3.32286
LeftHand  -0.25398 0.0180481 5.50724
RightShoulder  4.71714 7.95838 35.1887
RightArm  -2.43476 5.5292 31.5671
RightForeArm  5.64826 17.5115 5.55569
RightHand  -0.909139 2.58522 -13.444
LeftUpLeg  -14.3102 5.2301 1.77141
LeftLeg  34.1108 3.6781 3.02877
LeftFoot  -2.11409 0.673414 -8.17634
LeftToes  1.06246e-005 4.65868e-005 -8.65513e-006
225
root  -36.3399 40.784 -2.05244 -14.4763 -77.7804 11.765
RightUpLeg  -1.90938 -11.8334 -4.78208
RightLeg  15.6831 -18.0689 1.53114
RightFoot  -9.70256 -0.0155252 -3.4963
RightToes  0.000481921 0.542163 -0.142578
Spine  0.773118 1.67176 14.0181
Spine1  13.822 4.68596 -8.06731
HEad  21.2274 6.46748 -18.0624
LeftShoulder1  9.2469 -12.7776 -49.5816
LeftArm  -6.70333 29.2561 -21.4884
LeftForeArm  32.3461 -22.1514 -3.25023
LeftHand  -0.25398 0.0180481 5.50724
RightShoulder  4.72018 7.98338 35.1268
RightArm  -1.08737 5.83539 31.9502
RightForeArm  5.28383 18.0843 5.46904
RightHand  -0.91626 2.69938 -13.3661
LeftUpLeg  -14.7255 6.90219 0.862443
LeftLeg  28.2603 2.88337 2.01152
LeftFoot  -1.75248 0.722678 -8.48132
LeftToes  1.06246e-005 4.65868e-005 -8.65513e-006
226
root  -36.7511 40.8308 -2.13148 -15.5676 -77.7278 12.9646
RightUpLeg  -0.990137 -11.7683 -4.9317
RightLeg  14.9728 -18.0899 1.77044
RightFoot  -10.0475 -0.0290136 -3.43995
RightToes  0.000481921 0.542163 -0.142578
Spine  0.780747 1.78017 13.7326
Spine1  13.6465 4.91148 -8.88143
HEad  20.5332 7.46463 -19.3361
LeftShoulder1  9.28112 -12.777 -49.7663
LeftArm  -6.90443 28.5267 -21.5418
LeftForeArm  33.6365 -23.3887 -3.28491
LeftHand  -0.25398 0.0180481 5.50724
RightShoulder  4.70226 7.98175 34.9793
RightArm  -0.0078575 5.88741 32.7146
RightForeArm  5.53147 18.43 5.39493
RightHand  -0.91719 2.76048 -13.2849
LeftUpLeg  -15.0838 8.96141 -0.152882
LeftLeg  22.282 1.8583 1.18293
LeftFoot  -1.17759 0.768285 -8.55058
LeftToes  1.06246e-005 4.65868e-005 -8.65513e-006
227
root  -37.152 40.8595 -2.19541 -16.5008 -77.8532 14.04
RightUpLeg  -0.205535 -11.7477 -5.04223
RightLeg  14.3939 -17.9434 2.03207
RightFoot  -10.4457 -0.0446879 -3.32003
RightToes  0.000481921 0.542163 -0.142578
Spine  0.947512 1.8489 13.2521
Spine1  13.2602 5.06186 -9.50834
HEad  19.8016 8.29825 -20.1649
LeftShoulder1  9.34555 -12.8296 -49.9495
LeftArm  -7.00288 27.8348 -21.4524
LeftForeArm  34.5685 -24.4959 -3.43061
LeftHand  -0.25398 0.0180481 5.50724
RightShoulder  4.72821 8.04843 34.9676
RightArm  0.745269 5.60106 33.5528
RightForeArm  5.96269 18.7105 5.31024
RightHand  -0.92304 2.80231 -13.303
LeftUpLeg  -15.3845 11.172 -1.15605
LeftLeg  16.4167 0.750093 0.490045
LeftFoot  -0.571067 0.810485 -8.55155
LeftToes  1.06246e-005 4.65868e-005 -8.65513e-006
228
root  -37.5563 40.877 -2.23427 -17.2037 -78.2242 14.8102
RightUpLeg  0.601709 -11.6439 -5.03693
RightLeg  13.8556 -17.6833 2.26095
RightFoot  -10.7614 -0.0563773 -3.20689
RightToes  0.000481921 0.542163 -0.142578
Spine  1.24009 1.86549 12.7027
Spine1  12.8901 5.15214 -9.97096
HEad  18.8376 8.92191 -20.5339
LeftShoulder1  9.39024 -12.8619 -50.0885
LeftArm  -6.94296 27.0979 -21.2736
LeftForeArm  35.0517 -25.5114 -3.62104
LeftHand  -0.25398 0.0180481 5.50724
RightShoulder  4.81842 8.19323 35.2277
RightArm  1.34163 5.18506 34.2545
RightForeArm  6.34993 18.8704 5.25969
RightHand  -0.931707 2.8736 -13.3156
LeftUpLeg  -15.4189 11.3003 -1.24343
LeftLeg  10.8196 1.66437 -0.711843
LeftFoot  0.422804 0.879202 -8.54981
LeftToes  1.06246e-005 4.65868e-005 -8.65513e-006
229
root  -37.9777 40.8833 -2.23769 -17.845 -78.8099 15.467
RightUpLeg  1.4475 -11.4763 -4.9725
RightLeg  13.3605 -17.2472 2.4364
RightFoot  -11.0687 -0.0671842 -3.03026
RightToes  0.000481921 0.542163 -0.142578
Spine  1.40017 1.84017 12.0175
Spine1  12.8141 5.1635 -10.185
HEad  17.6409 9.32768 -20.6059
LeftShoulder1  9.39052 -12.8519 -50.1203
LeftArm  -6.86839 26.2368 -21.1441
LeftForeArm  35.2924 -26.3331 -3.78184
LeftHand  -0.25398 0.0180481 5.50724
RightShoulder  4.92034 8.34108 35.568
RightArm  1.67678 4.82938 35.0216
RightForeArm  6.90526 18.6541 5.31299
RightHand  -0.926114 2.90718 -13.1872
LeftUpLeg  -15.1569 7.01621 0.361775
LeftLeg  5.70969 6.86706 -2.9422
LeftFoot  1.7179 0.967331 -8.53071
LeftToes  1.06246e-005 4.65868e-005 -8.65513e-006
230
root  -38.4246 40.8733 -2.20096 -18.5816 -79.5969 16.2886
RightUpLeg  2.20138 -11.3784 -4.94085
RightLeg  12.9799 -16.5081 2.61207
RightFoot  -11.5079 -0.0818936 -2.76862
RightToes  0.000481921 0.542163 -0.142578
Spine  1.32226 1.83022 11.191
Spine1  12.8773 5.12816 -10.1742
HEad  16.469 9.78032 -20.6072
LeftShoulder1  9.37754 -12.8483 -50.0626
LeftArm  -6.71766 25.3515 -21.0023
LeftForeArm  35.4496 -26.7726 -3.86735
LeftHand  -0.25398 0.0180481 5.50724
RightShoulder  4.99231 8.445 35.8041
RightArm  1.41752 4.33759 36.07
RightForeArm  7.91035 18.0062 5.46567
RightHand  -0.907749 2.84357 -13.0273
LeftUpLeg  -15.1726 3.86771 1.60147
LeftLeg  1.54611 10.4733 -4.67715
LeftFoot  2.83262 1.04269 -8.51476
LeftToes  1.06246e-005 4.65868e-005 -8.65513e-006
231
root  -38.9033 40.8451 -2.11956 -19.3324 -80.636 17.1852
RightUpLeg  2.8618 -11.3218 -4.92792
RightLeg  12.7405 -15.4947 2.80753
RightFoot  -12.0498 -0.0967437 -2.46778
RightToes  0.000481921 0.542163 -0.142578
Spine  1.20555 1.85451 10.4648
Spine1  12.736 5.10925 -10.1297
HEad  15.6634 10.6778 -20.4341
LeftShoulder1  9.38372 -12.8789 -50.0026
LeftArm  -6.27712 24.571 -20.6903
LeftForeArm  35.5311 -26.7467 -3.85773
LeftHand  -0.25398 0.0180481 5.50724
RightShoulder  5.04418 8.50976 36.0059
RightArm  0.625299 3.43963 37.2324
RightForeArm  9.36561 17.1348 5.65115
RightHand  -0.906039 2.81348 -13.0479
LeftUpLeg  -15.4296 2.84528 2.14957
LeftLeg  -1.1664 11.5305 -5.39212
LeftFoot  3.8068 1.04948 -8.06303
LeftToes  1.06246e-005 4.65868e-005 -8.65513e-006
